{
  "accessors": [
    {
      "bufferView": 2,
      "componentType": 5126,
      "count": 65532,
      "max": [
        50.40999984741211,
        47.036502838134766,
        19.74323272705078
      ],
      "min": [
        -50.410003662109375,
        -47.0364990234375,
        -24.187997817993164
      ],
      "type": "VEC3"
    },
    {
      "bufferView": 2,
      "byteOffset": 786384,
      "componentType": 5126,
      "count": 65532,
      "max": [
        1.0,
        1.0,
        0.999994158744812
      ],
      "min": [
        -0.9998789429664612,
        -0.9999673962593079,
        -0.999803900718689
      ],
      "type": "VEC3"
    },
    {
      "bufferView": 1,
      "componentType": 5126,
      "count": 65532,
      "max": [
        0.9991620182991028,
        0.9993060231208801
      ],
      "min": [
        0.0043219998478889465,
        0.0006380000268109143
      ],
      "type": "VEC2"
    },
    {
      "bufferView": 0,
      "componentType": 5125,
      "count": 296460,
      "type": "SCALAR"
    },
    {
      "bufferView": 2,
      "byteOffset": 1572768,
      "componentType": 5126,
      "count": 65532,
      "max": [
        50.40999221801758,
        46.51510238647461,
        16.043258666992188
      ],
      "min": [
        15.395087242126465,
        -46.84919738769531,
        -24.13762855529785
      ],
      "type": "VEC3"
    },
    {
      "bufferView": 2,
      "byteOffset": 2359152,
      "componentType": 5126,
      "count": 65532,
      "max": [
        0.9975707530975342,
        0.9999178051948547,
        0.9999962449073792
      ],
      "min": [
        -0.9999276399612427,
        -0.9998319149017334,
        -0.9997898936271667
      ],
      "type": "VEC3"
    },
    {
      "bufferView": 1,
      "byteOffset": 524256,
      "componentType": 5126,
      "count": 65532,
      "max": [
        1.0,
        0.9998729825019836
      ],
      "min": [
        0.0,
        0.0
      ],
      "type": "VEC2"
    },
    {
      "bufferView": 0,
      "byteOffset": 1185840,
      "componentType": 5125,
      "count": 242730,
      "type": "SCALAR"
    },
    {
      "bufferView": 2,
      "byteOffset": 3145536,
      "componentType": 5126,
      "count": 65532,
      "max": [
        31.71388816833496,
        45.95161437988281,
        15.6761474609375
      ],
      "min": [
        12.83249568939209,
        -41.53068542480469,
        -23.938302993774414
      ],
      "type": "VEC3"
    },
    {
      "bufferView": 2,
      "byteOffset": 3931920,
      "componentType": 5126,
      "count": 65532,
      "max": [
        0.9993910789489746,
        0.999981701374054,
        0.9999967813491821
      ],
      "min": [
        -0.9997420907020569,
        -0.9999837875366211,
        -0.8702361583709717
      ],
      "type": "VEC3"
    },
    {
      "bufferView": 1,
      "byteOffset": 1048512,
      "componentType": 5126,
      "count": 65532,
      "max": [
        0.9989219903945923,
        1.0
      ],
      "min": [
        0.00120599998626858,
        5.0999999075429514e-05
      ],
      "type": "VEC2"
    },
    {
      "bufferView": 0,
      "byteOffset": 2156760,
      "componentType": 5125,
      "count": 299763,
      "type": "SCALAR"
    },
    {
      "bufferView": 2,
      "byteOffset": 4718304,
      "componentType": 5126,
      "count": 65532,
      "max": [
        31.95857810974121,
        45.33476638793945,
        15.6761474609375
      ],
      "min": [
        5.867721080780029,
        -46.60052490234375,
        -23.907411575317383
      ],
      "type": "VEC3"
    },
    {
      "bufferView": 2,
      "byteOffset": 5504688,
      "componentType": 5126,
      "count": 65532,
      "max": [
        0.9998823404312134,
        0.9999836087226868,
        0.9999951124191284
      ],
      "min": [
        -0.9999698996543884,
        -0.9997807741165161,
        -0.9952746033668518
      ],
      "type": "VEC3"
    },
    {
      "bufferView": 1,
      "byteOffset": 1572768,
      "componentType": 5126,
      "count": 65532,
      "max": [
        0.9988240003585815,
        0.999845027923584
      ],
      "min": [
        0.0019409999949857593,
        0.0
      ],
      "type": "VEC2"
    },
    {
      "bufferView": 0,
      "byteOffset": 3355812,
      "componentType": 5125,
      "count": 238026,
      "type": "SCALAR"
    },
    {
      "bufferView": 2,
      "byteOffset": 6291072,
      "componentType": 5126,
      "count": 65532,
      "max": [
        21.222326278686523,
        44.815818786621094,
        20.24001693725586
      ],
      "min": [
        -1.3542360067367554,
        -46.63322448730469,
        -21.997591018676758
      ],
      "type": "VEC3"
    },
    {
      "bufferView": 2,
      "byteOffset": 7077456,
      "componentType": 5126,
      "count": 65532,
      "max": [
        0.9999745488166809,
        0.9999836087226868,
        0.999999463558197
      ],
      "min": [
        -0.9999026656150818,
        -0.9999754428863525,
        -0.9957263469696045
      ],
      "type": "VEC3"
    },
    {
      "bufferView": 1,
      "byteOffset": 2097024,
      "componentType": 5126,
      "count": 65532,
      "max": [
        0.9990040063858032,
        0.999468982219696
      ],
      "min": [
        0.004358999896794558,
        9.699999645818025e-05
      ],
      "type": "VEC2"
    },
    {
      "bufferView": 0,
      "byteOffset": 4307916,
      "componentType": 5125,
      "count": 267432,
      "type": "SCALAR"
    },
    {
      "bufferView": 2,
      "byteOffset": 7863840,
      "componentType": 5126,
      "count": 65533,
      "max": [
        21.131681442260742,
        42.324913024902344,
        24.187999725341797
      ],
      "min": [
        -1.2776139974594116,
        -44.10020446777344,
        -15.168100357055664
      ],
      "type": "VEC3"
    },
    {
      "bufferView": 2,
      "byteOffset": 8650236,
      "componentType": 5126,
      "count": 65533,
      "max": [
        0.9999628663063049,
        0.9999703168869019,
        0.9999961256980896
      ],
      "min": [
        -0.9999950528144836,
        -0.9999953508377075,
        -0.9981549978256226
      ],
      "type": "VEC3"
    },
    {
      "bufferView": 1,
      "byteOffset": 2621280,
      "componentType": 5126,
      "count": 65533,
      "max": [
        0.9985349774360657,
        1.0
      ],
      "min": [
        0.0006709999870508909,
        0.0008740000193938613
      ],
      "type": "VEC2"
    },
    {
      "bufferView": 0,
      "byteOffset": 5377644,
      "componentType": 5125,
      "count": 297297,
      "type": "SCALAR"
    },
    {
      "bufferView": 2,
      "byteOffset": 9436632,
      "componentType": 5126,
      "count": 65532,
      "max": [
        13.363661766052246,
        44.55221176147461,
        19.977745056152344
      ],
      "min": [
        -35.01613998413086,
        -43.41300964355469,
        -22.077829360961914
      ],
      "type": "VEC3"
    },
    {
      "bufferView": 2,
      "byteOffset": 10223016,
      "componentType": 5126,
      "count": 65532,
      "max": [
        0.9999776482582092,
        0.9999840259552002,
        0.9999966621398926
      ],
      "min": [
        -0.9999725222587585,
        -0.9999639987945557,
        -0.9995537996292114
      ],
      "type": "VEC3"
    },
    {
      "bufferView": 1,
      "byteOffset": 3145544,
      "componentType": 5126,
      "count": 65532,
      "max": [
        0.9988830089569092,
        1.0
      ],
      "min": [
        0.0009710000013001263,
        0.0
      ],
      "type": "VEC2"
    },
    {
      "bufferView": 0,
      "byteOffset": 6566832,
      "componentType": 5125,
      "count": 291990,
      "type": "SCALAR"
    },
    {
      "bufferView": 2,
      "byteOffset": 11009400,
      "componentType": 5126,
      "count": 65532,
      "max": [
        -4.243384838104248,
        46.090538024902344,
        14.096991539001465
      ],
      "min": [
        -32.307918548583984,
        -40.721832275390625,
        -22.966264724731445
      ],
      "type": "VEC3"
    },
    {
      "bufferView": 2,
      "byteOffset": 11795784,
      "componentType": 5126,
      "count": 65532,
      "max": [
        0.9999608397483826,
        0.9999868273735046,
        0.999994695186615
      ],
      "min": [
        -0.9998346567153931,
        -0.9999824166297913,
        -0.9832355380058289
      ],
      "type": "VEC3"
    },
    {
      "bufferView": 1,
      "byteOffset": 3669800,
      "componentType": 5126,
      "count": 65532,
      "max": [
        1.0,
        0.9990820288658142
      ],
      "min": [
        0.0,
        0.0003640000068116933
      ],
      "type": "VEC2"
    },
    {
      "bufferView": 0,
      "byteOffset": 7734792,
      "componentType": 5125,
      "count": 296232,
      "type": "SCALAR"
    },
    {
      "bufferView": 2,
      "byteOffset": 12582168,
      "componentType": 5126,
      "count": 65532,
      "max": [
        -5.1909098625183105,
        46.683502197265625,
        13.936660766601563
      ],
      "min": [
        -50.27684783935547,
        -38.209930419921875,
        -23.266313552856445
      ],
      "type": "VEC3"
    },
    {
      "bufferView": 2,
      "byteOffset": 13368552,
      "componentType": 5126,
      "count": 65532,
      "max": [
        0.999973475933075,
        0.9999866485595703,
        0.9999951124191284
      ],
      "min": [
        -0.999303936958313,
        -0.999859631061554,
        -0.9995141625404358
      ],
      "type": "VEC3"
    },
    {
      "bufferView": 1,
      "byteOffset": 4194056,
      "componentType": 5126,
      "count": 65532,
      "max": [
        0.9996709823608398,
        0.9996449947357178
      ],
      "min": [
        0.0,
        0.0
      ],
      "type": "VEC2"
    },
    {
      "bufferView": 0,
      "byteOffset": 8919720,
      "componentType": 5125,
      "count": 231639,
      "type": "SCALAR"
    },
    {
      "bufferView": 2,
      "byteOffset": 14154936,
      "componentType": 5126,
      "count": 65532,
      "max": [
        26.981115341186523,
        46.592987060546875,
        13.446426391601563
      ],
      "min": [
        -50.40999984741211,
        -40.8828125,
        -22.658777236938477
      ],
      "type": "VEC3"
    },
    {
      "bufferView": 2,
      "byteOffset": 14941320,
      "componentType": 5126,
      "count": 65532,
      "max": [
        0.9999963045120239,
        0.9999271631240845,
        0.9999984502792358
      ],
      "min": [
        -0.9998084306716919,
        -0.9999964237213135,
        -0.9994643926620483
      ],
      "type": "VEC3"
    },
    {
      "bufferView": 1,
      "byteOffset": 4718312,
      "componentType": 5126,
      "count": 65532,
      "max": [
        0.9996880292892456,
        1.0
      ],
      "min": [
        0.000195999993593432,
        0.0
      ],
      "type": "VEC2"
    },
    {
      "bufferView": 0,
      "byteOffset": 9846276,
      "componentType": 5125,
      "count": 227121,
      "type": "SCALAR"
    },
    {
      "bufferView": 2,
      "byteOffset": 15727704,
      "componentType": 5126,
      "count": 65532,
      "max": [
        7.098556041717529,
        46.434871673583984,
        24.010311126708984
      ],
      "min": [
        -9.829455375671387,
        -39.54118347167969,
        -23.429826736450195
      ],
      "type": "VEC3"
    },
    {
      "bufferView": 2,
      "byteOffset": 16514088,
      "componentType": 5126,
      "count": 65532,
      "max": [
        0.9999806880950928,
        0.9999967813491821,
        0.9999921321868896
      ],
      "min": [
        -0.9999917149543762,
        -0.9999902248382568,
        -0.9998859763145447
      ],
      "type": "VEC3"
    },
    {
      "bufferView": 1,
      "byteOffset": 5242568,
      "componentType": 5126,
      "count": 65532,
      "max": [
        0.9990190267562866,
        0.9986330270767212
      ],
      "min": [
        0.0007619999814778566,
        0.0
      ],
      "type": "VEC2"
    },
    {
      "bufferView": 0,
      "byteOffset": 10754760,
      "componentType": 5125,
      "count": 239775,
      "type": "SCALAR"
    },
    {
      "bufferView": 2,
      "byteOffset": 17300472,
      "componentType": 5126,
      "count": 11754,
      "max": [
        13.341452598571777,
        38.906639099121094,
        24.187999725341797
      ],
      "min": [
        -1.136978030204773,
        -36.98332214355469,
        -14.280351638793945
      ],
      "type": "VEC3"
    },
    {
      "bufferView": 2,
      "byteOffset": 17441520,
      "componentType": 5126,
      "count": 11754,
      "max": [
        0.9999876022338867,
        0.9999257326126099,
        0.9999918341636658
      ],
      "min": [
        -0.9999563694000244,
        -0.9999892115592957,
        -0.9884530901908875
      ],
      "type": "VEC3"
    },
    {
      "bufferView": 1,
      "byteOffset": 5766824,
      "componentType": 5126,
      "count": 11754,
      "max": [
        0.9988129734992981,
        0.9988719820976257
      ],
      "min": [
        0.004255000036209822,
        0.0025760000571608543
      ],
      "type": "VEC2"
    },
    {
      "bufferView": 0,
      "byteOffset": 11713860,
      "componentType": 5125,
      "count": 27903,
      "type": "SCALAR"
    }
  ],
  "asset": {
    "extras": {
      "author": "Andrea Spognetta (Spogna) (https://sketchfab.com/spogna)",
      "license": "CC-BY-NC-4.0 (http://creativecommons.org/licenses/by-nc/4.0/)",
      "source": "https://sketchfab.com/3d-models/rocca-calascio-rawscan-7fbfe67ec4864d439f25303b50697189",
      "title": "Rocca Calascio - RAWscan"
    },
    "generator": "Sketchfab-12.67.0",
    "version": "2.0"
  },
  "bufferViews": [
    {
      "buffer": 0,
      "byteLength": 11825472,
      "name": "floatBufferViews",
      "target": 34963
    },
    {
      "buffer": 0,
      "byteLength": 5860856,
      "byteOffset": 11825472,
      "byteStride": 8,
      "name": "floatBufferViews",
      "target": 34962
    },
    {
      "buffer": 0,
      "byteLength": 17582568,
      "byteOffset": 17686328,
      "byteStride": 12,
      "name": "floatBufferViews",
      "target": 34962
    }
  ],
  "buffers": [
    {
      "byteLength": 35268896,
      "uri": "scene.bin"
    }
  ],
  "extensionsUsed": [
    "KHR_materials_unlit"
  ],
  "images": [
    {
      "uri": "textures/material_0_baseColor.jpeg"
    }
  ],
  "materials": [
    {
      "doubleSided": true,
      "extensions": {
        "KHR_materials_unlit": {}
      },
      "name": "material_0",
      "pbrMetallicRoughness": {
        "baseColorTexture": {
          "index": 0
        },
        "metallicFactor": 0.0
      }
    }
  ],
  "meshes": [
    {
      "name": "Object_0",
      "primitives": [
        {
          "attributes": {
            "NORMAL": 1,
            "POSITION": 0,
            "TEXCOORD_0": 2
          },
          "indices": 3,
          "material": 0,
          "mode": 4
        }
      ]
    },
    {
      "name": "Object_1",
      "primitives": [
        {
          "attributes": {
            "NORMAL": 5,
            "POSITION": 4,
            "TEXCOORD_0": 6
          },
          "indices": 7,
          "material": 0,
          "mode": 4
        }
      ]
    },
    {
      "name": "Object_2",
      "primitives": [
        {
          "attributes": {
            "NORMAL": 9,
            "POSITION": 8,
            "TEXCOORD_0": 10
          },
          "indices": 11,
          "material": 0,
          "mode": 4
        }
      ]
    },
    {
      "name": "Object_3",
      "primitives": [
        {
          "attributes": {
            "NORMAL": 13,
            "POSITION": 12,
            "TEXCOORD_0": 14
          },
          "indices": 15,
          "material": 0,
          "mode": 4
        }
      ]
    },
    {
      "name": "Object_4",
      "primitives": [
        {
          "attributes": {
            "NORMAL": 17,
            "POSITION": 16,
            "TEXCOORD_0": 18
          },
          "indices": 19,
          "material": 0,
          "mode": 4
        }
      ]
    },
    {
      "name": "Object_5",
      "primitives": [
        {
          "attributes": {
            "NORMAL": 21,
            "POSITION": 20,
            "TEXCOORD_0": 22
          },
          "indices": 23,
          "material": 0,
          "mode": 4
        }
      ]
    },
    {
      "name": "Object_6",
      "primitives": [
        {
          "attributes": {
            "NORMAL": 25,
            "POSITION": 24,
            "TEXCOORD_0": 26
          },
          "indices": 27,
          "material": 0,
          "mode": 4
        }
      ]
    },
    {
      "name": "Object_7",
      "primitives": [
        {
          "attributes": {
            "NORMAL": 29,
            "POSITION": 28,
            "TEXCOORD_0": 30
          },
          "indices": 31,
          "material": 0,
          "mode": 4
        }
      ]
    },
    {
      "name": "Object_8",
      "primitives": [
        {
          "attributes": {
            "NORMAL": 33,
            "POSITION": 32,
            "TEXCOORD_0": 34
          },
          "indices": 35,
          "material": 0,
          "mode": 4
        }
      ]
    },
    {
      "name": "Object_9",
      "primitives": [
        {
          "attributes": {
            "NORMAL": 37,
            "POSITION": 36,
            "TEXCOORD_0": 38
          },
          "indices": 39,
          "material": 0,
          "mode": 4
        }
      ]
    },
    {
      "name": "Object_10",
      "primitives": [
        {
          "attributes": {
            "NORMAL": 41,
            "POSITION": 40,
            "TEXCOORD_0": 42
          },
          "indices": 43,
          "material": 0,
          "mode": 4
        }
      ]
    },
    {
      "name": "Object_11",
      "primitives": [
        {
          "attributes": {
            "NORMAL": 45,
            "POSITION": 44,
            "TEXCOORD_0": 46
          },
          "indices": 47,
          "material": 0,
          "mode": 4
        }
      ]
    }
  ],
  "nodes": [
    {
      "children": [
        1
      ],
      "matrix": [
        1.0,
        0.0,
        0.0,
        0.0,
        0.0,
        2.220446049250313e-16,
        -1.0,
        0.0,
        0.0,
        1.0,
        2.220446049250313e-16,
        0.0,
        0.0,
        0.0,
        0.0,
        1.0
      ],
      "name": "Sketchfab_model"
    },
    {
      "children": [
        2,
        3,
        4,
        5,
        6,
        7,
        8,
        9,
        10,
        11,
        12,
        13
      ],
      "name": "RoccaCalascio.obj.cleaner.materialmerger.gles"
    },
    {
      "mesh": 0,
      "name": "Object_2"
    },
    {
      "mesh": 1,
      "name": "Object_3"
    },
    {
      "mesh": 2,
      "name": "Object_4"
    },
    {
      "mesh": 3,
      "name": "Object_5"
    },
    {
      "mesh": 4,
      "name": "Object_6"
    },
    {
      "mesh": 5,
      "name": "Object_7"
    },
    {
      "mesh": 6,
      "name": "Object_8"
    },
    {
      "mesh": 7,
      "name": "Object_9"
    },
    {
      "mesh": 8,
      "name": "Object_10"
    },
    {
      "mesh": 9,
      "name": "Object_11"
    },
    {
      "mesh": 10,
      "name": "Object_12"
    },
    {
      "mesh": 11,
      "name": "Object_13"
    }
  ],
  "samplers": [
    {
      "magFilter": 9729,
      "minFilter": 9987,
      "wrapS": 10497,
      "wrapT": 10497
    }
  ],
  "scene": 0,
  "scenes": [
    {
      "name": "Sketchfab_Scene",
      "nodes": [
        0
      ]
    }
  ],
  "textures": [
    {
      "sampler": 0,
      "source": 0
    }
  ]
}
